<?xml version="1.0" encoding="utf-8"?>
<!-- Generator: Adobe Illustrator 26.1.0, SVG Export Plug-In . SVG Version: 6.00 Build 0)  -->
<svg version="1.1" id="Layer_1" focusable="false" xmlns="http://www.w3.org/2000/svg" xmlns:xlink="http://www.w3.org/1999/xlink"
	 x="0px" y="0px" viewBox="0 0 384 512" style="enable-background:new 0 0 384 512;" xml:space="preserve">
<style type="text/css">
	.st0{fill:#04385C;}
	.st1{clip-path:url(#SVGID_00000022540785973913403480000010533279511721526925_);fill:#FFFFFF;}
</style>
<path class="st0" d="M172.3,501.7C27,291,0,269.4,0,192C0,86,86,0,192,0s192,86,192,192c0,77.4-27,99-172.3,309.7
	C202.2,515.4,181.8,515.4,172.3,501.7L172.3,501.7z"/>
<g id="Layer_5">
	<g>
		<g>
			<g>
				<defs>
					<circle id="SVGID_1_" cx="192" cy="192" r="144.7"/>
				</defs>
				<clipPath id="SVGID_00000121264434674841956460000018057262960472088476_">
					<use xlink:href="#SVGID_1_"  style="overflow:visible;"/>
				</clipPath>
				<path style="clip-path:url(#SVGID_00000121264434674841956460000018057262960472088476_);fill:#FFFFFF;" d="M340.1,176.5
					c-2-2-4.7-2-6.1,0c-4.1,3.4-8.1,6.1-12.8,8.8l-8.1-50.7c0.7-0.7,1.4-1.4,2-2c0.7-2-0.7-4.1-2.7-4.7c-0.7,0-2-0.7-2.7-0.7l0,0
					c-57.5-14.2-80.5,26.4-85.2,37.2l-5.4-0.7l-4.7-19.6c0-0.7-0.7-0.7-0.7-1.4l6.1-26.4c0.7-2-0.7-3.4-2-4.1
					c-12.2-6.1-25.7-4.7-26.4-4.1c-0.7,0-1.4,0-2,0.7l-27,20.3l-27-6.8c-1.4,0-2,0-3.4,0.7l-39.9,30.4l-31.1-1.4
					c-1.4,0-2.7,0.7-3.4,1.4c-0.7,0.7-0.7,2-0.7,3.4c0.7,1.4,4.1,10.8,25.7,35.2c-14.9,1.4-29.7,4.1-43.9,8.1l0,0h-0.7
					c-2,0.7-2.7,3.4-2,5.4c0.7,2,3.4,2.7,5.4,2c40.6-12.2,83.2-12.8,123.7-2c16.2,4.7,32.5,7.4,48,8.8c-4.7,1.4-8.8,2.7-13.5,4.1
					c-63.5,23.7-117.6,23.7-156.8,0c-0.7-0.7-2-0.7-3.4,0c-1.4,0.7-2,1.4-2.7,2c-0.7,0.7-0.7,2,0,3.4c0.7,1.4,1.4,2,2,2.7
					c15.5,8.8,32.5,14.9,49.4,17.6c-21,4.7-31.8,13.5-33.1,14.9c0,0-0.7,0.7-0.7,2c0,1.4,0,2.7,1.4,3.4c0.7,0.7,1.4,1.4,2.7,2
					c1.4,0,2,0,2.7-0.7c0,0,22.3-18.3,66.9-16.9c19.6,0.7,39.2,4.7,60.2,12.8c8.8,3.4,17.6,6.1,27.7,8.1
					c-13.5,1.4-27.7,4.7-43.9,10.1c-33.1,10.8-69.6,8.8-100.7-6.1c-2-0.7-4.7,0-5.4,2s0,4.7,2,5.4c16.2,8.1,33.1,12.8,50.7,14.2
					c-7.4,3.4-14.9,8.1-21,13.5l-0.7,0.7c-2,2-2.7,4.1-0.7,6.1c0.7,0.7,1.4,1.4,2.7,2c1.4,0,2,0,3.4-1.4l0.7-0.7
					c25.7-20.3,59.5-27,91.3-17.6c18.3,4.7,33.1,10.1,44.6,14.2l5.4,2c16.2,6.1,29.1,10.1,41.9,10.1c8.1,0,15.5-2,24.3-6.1
					c0.7-0.7,1.4-1.4,2-2.7c0.7-1.4,0-2,0-3.4c-0.7-0.7-1.4-1.4-2.7-2c-1.4-0.7-2,0-3.4,0c-20.3,8.8-34.5,3.4-59.5-6.1l-2-0.7
					c-12.8-4.7-28.4-10.8-48.7-15.5c-4.7-1.4-9.5-2.7-14.2-3.4c82.5-25,126.4,12.8,127.1,13.5c0.7,0.7,2,0.7,2.7,0.7
					c1.4,0,2-0.7,2.7-1.4c0.7-0.7,1.4-1.4,1.4-2c0-1.4,0-2.7-1.4-3.4c0,0-16.9-14.9-48.7-21.6c21-2.7,41.2-6.8,62.2-14.2
					c1.4-0.7,2-1.4,2.7-2.7c0.7-1.4,0.7-2,0-2.7c-0.7-1.4-1.4-2-2.7-2.7c-1.4-0.7-2-0.7-2.7,0c-73,25-101.4,15.5-133.9,4.7
					c-14.2-6.1-29.1-9.5-43.9-11.5c18.9-2.7,37.9-8.1,56.1-15.5c51.4-18.9,101.4,1.4,122.4,10.1l2.7,1.4c2,1.4,4.1,2,7.4,2.7
					c2,0,4.1-2,4.1-4.1s-1.4-3.4-3.4-4.1H336c0,0-0.7-0.7-1.4-0.7c-0.7-0.7-2-0.7-2.7-1.4l-1.4-0.7c-11.5-4.7-33.1-14.9-59.5-18.3
					c18.3-3.4,33.1-8.8,44.6-14.9l2.7,16.2c0,2,2,3.4,3.4,3.4h0.7c2,0,3.4-2,3.4-4.1l-2.7-18.3c6.8-3.4,12.2-7.4,16.2-10.1
					c0.7,0,0.7-0.7,0.7-0.7l0,0c0.7-0.7,1.4-1.4,1.4-2C341.4,178.5,341.4,177.1,340.1,176.5z M305.6,133.9l8.8,55.4
					c-6.8,3.4-14.9,6.8-23,9.5c-0.7,0-2,0.7-2.7,0.7l13.5-24.3c0.7-1.4,0.7-2.7,0-3.4c-0.7-1.4-2-2-2.7-2l-66.3-4.7
					C238.6,152.8,258.3,123,305.6,133.9z M193.4,114.3c2.7,0,10.8,0,18.9,2.7l-5.4,23l-35.2-8.1L193.4,114.3z M134.5,130.5l73,17.6
					l3.4,14.9l-108.8-8.1L134.5,130.5z M67.6,159.5l225.8,16.9l-14.2,25.7c-34.5,8.8-72.3,7.4-111.5-4.1c-25-6.1-50-8.8-75.7-6.8
					l0.7-0.7C77.7,175.1,71,165,67.6,159.5z"/>
			</g>
		</g>
	</g>
</g>
</svg>
