<?xml version="1.0" encoding="utf-8"?>
<!-- Generator: Adobe Illustrator 26.1.0, SVG Export Plug-In . SVG Version: 6.00 Build 0)  -->
<svg version="1.1" id="Layer_1" xmlns="http://www.w3.org/2000/svg" xmlns:xlink="http://www.w3.org/1999/xlink" x="0px" y="0px"
	 viewBox="0 0 56.7 56.7" style="enable-background:new 0 0 56.7 56.7;" xml:space="preserve">
<style type="text/css">
	.st0{fill:#04385C;}
	.st1{clip-path:url(#SVGID_00000168810490762847274390000002243767938608854412_);fill:#FFFFFF;}
</style>
<g id="Layer_1_00000002367657305769171200000010183156532383758985_">
	<circle class="st0" cx="28.4" cy="28.4" r="28.4"/>
</g>
<g id="Layer_5">
	<g>
		<g>
			<defs>
				<circle id="SVGID_1_" cx="28.4" cy="28.4" r="21.4"/>
			</defs>
			<clipPath id="SVGID_00000027565253186249496810000012495556848811717264_">
				<use xlink:href="#SVGID_1_"  style="overflow:visible;"/>
			</clipPath>
			<path style="clip-path:url(#SVGID_00000027565253186249496810000012495556848811717264_);fill:#FFFFFF;" d="M50.3,26.1
				c-0.3-0.3-0.7-0.3-0.9,0c-0.6,0.5-1.2,0.9-1.9,1.3l-1.2-7.5c0.1-0.1,0.2-0.2,0.3-0.3c0.1-0.3-0.1-0.6-0.4-0.7
				c-0.1,0-0.3-0.1-0.4-0.1c0,0,0,0,0,0c-8.5-2.1-11.9,3.9-12.6,5.5l-0.8-0.1l-0.7-2.9c0-0.1-0.1-0.1-0.1-0.2l0.9-3.9
				c0.1-0.3-0.1-0.5-0.3-0.6c-1.8-0.9-3.8-0.7-3.9-0.6c-0.1,0-0.2,0-0.3,0.1L24,19.1l-4-1c-0.2,0-0.3,0-0.5,0.1l-5.9,4.5L9,22.5
				c-0.2,0-0.4,0.1-0.5,0.2c-0.1,0.1-0.1,0.3-0.1,0.5c0.1,0.2,0.6,1.6,3.8,5.2c-2.2,0.2-4.4,0.6-6.5,1.2H5.7l-0.1,0
				c-0.3,0.1-0.4,0.5-0.3,0.8c0.1,0.3,0.5,0.4,0.8,0.3c6-1.8,12.3-1.9,18.3-0.3c2.4,0.7,4.8,1.1,7.1,1.3c-0.7,0.2-1.3,0.4-2,0.6
				c-9.4,3.5-17.4,3.5-23.2,0c-0.1-0.1-0.3-0.1-0.5,0s-0.3,0.2-0.4,0.3c-0.1,0.1-0.1,0.3,0,0.5c0.1,0.2,0.2,0.3,0.3,0.4
				c2.3,1.3,4.8,2.2,7.3,2.6c-3.1,0.7-4.7,2-4.9,2.2C8.1,38.3,8,38.4,8,38.6c0,0.2,0,0.4,0.2,0.5c0.1,0.1,0.2,0.2,0.4,0.3
				c0.2,0,0.3,0,0.4-0.1c0,0,3.3-2.7,9.9-2.5c2.9,0.1,5.8,0.7,8.9,1.9c1.3,0.5,2.6,0.9,4.1,1.2c-2,0.2-4.1,0.7-6.5,1.5
				c-4.9,1.6-10.3,1.3-14.9-0.9c-0.3-0.1-0.7,0-0.8,0.3c-0.1,0.3,0,0.7,0.3,0.8c2.4,1.2,4.9,1.9,7.5,2.1c-1.1,0.5-2.2,1.2-3.1,2
				l-0.1,0.1c-0.3,0.3-0.4,0.6-0.1,0.9c0.1,0.1,0.2,0.2,0.4,0.3c0.2,0,0.3,0,0.5-0.2l0.1-0.1c3.8-3,8.8-4,13.5-2.6
				c2.7,0.7,4.9,1.5,6.6,2.1l0.8,0.3c2.4,0.9,4.3,1.5,6.2,1.5c1.2,0,2.3-0.3,3.6-0.9c0.1-0.1,0.2-0.2,0.3-0.4c0.1-0.2,0-0.3,0-0.5
				c-0.1-0.1-0.2-0.2-0.4-0.3c-0.2-0.1-0.3,0-0.5,0c-3,1.3-5.1,0.5-8.8-0.9l-0.3-0.1c-1.9-0.7-4.2-1.6-7.2-2.3
				c-0.7-0.2-1.4-0.4-2.1-0.5c12.2-3.7,18.7,1.9,18.8,2c0.1,0.1,0.3,0.1,0.4,0.1c0.2,0,0.3-0.1,0.4-0.2c0.1-0.1,0.2-0.2,0.2-0.3
				c0-0.2,0-0.4-0.2-0.5c0,0-2.5-2.2-7.2-3.2c3.1-0.4,6.1-1,9.2-2.1c0.2-0.1,0.3-0.2,0.4-0.4c0.1-0.2,0.1-0.3,0-0.4
				c-0.1-0.2-0.2-0.3-0.4-0.4c-0.2-0.1-0.3-0.1-0.4,0c-10.8,3.7-15,2.3-19.8,0.7c-2.1-0.9-4.3-1.4-6.5-1.7c2.8-0.4,5.6-1.2,8.3-2.3
				c7.6-2.8,15,0.2,18.1,1.5l0.4,0.2c0.3,0.2,0.6,0.3,1.1,0.4c0.3,0,0.6-0.3,0.6-0.6c0-0.3-0.2-0.5-0.5-0.6l-0.1,0
				c0,0-0.1-0.1-0.2-0.1c-0.1-0.1-0.3-0.1-0.4-0.2l-0.2-0.1c-1.7-0.7-4.9-2.2-8.8-2.7c2.7-0.5,4.9-1.3,6.6-2.2l0.4,2.4
				c0,0.3,0.3,0.5,0.5,0.5c0,0,0.1,0,0.1,0c0.3,0,0.5-0.3,0.5-0.6l-0.4-2.7c1-0.5,1.8-1.1,2.4-1.5c0.1,0,0.1-0.1,0.1-0.1l0,0
				c0.1-0.1,0.2-0.2,0.2-0.3C50.5,26.4,50.5,26.2,50.3,26.1z M45.2,19.8l1.3,8.2c-1,0.5-2.2,1-3.4,1.4c-0.1,0-0.3,0.1-0.4,0.1l2-3.6
				c0.1-0.2,0.1-0.4,0-0.5c-0.1-0.2-0.3-0.3-0.4-0.3l-9.8-0.7C35.3,22.6,38.2,18.2,45.2,19.8z M28.6,16.9c0.4,0,1.6,0,2.8,0.4
				l-0.8,3.4l-5.2-1.2L28.6,16.9z M19.9,19.3l10.8,2.6l0.5,2.2l-16.1-1.2L19.9,19.3z M10,23.6l33.4,2.5l-2.1,3.8
				c-5.1,1.3-10.7,1.1-16.5-0.6c-3.7-0.9-7.4-1.3-11.2-1l0.1-0.1C11.5,25.9,10.5,24.4,10,23.6z"/>
		</g>
	</g>
</g>
</svg>
