<?xml version="1.0" encoding="utf-8"?>
<!-- Generator: Adobe Illustrator 24.1.2, SVG Export Plug-In . SVG Version: 6.00 Build 0)  -->
<svg version="1.1" id="Layer_1" focusable="false" xmlns="http://www.w3.org/2000/svg" xmlns:xlink="http://www.w3.org/1999/xlink"
	 x="0px" y="0px" viewBox="0 0 384 512" style="enable-background:new 0 0 384 512;" xml:space="preserve">
<style type="text/css">
	.st0{fill:#AAB3B7;}
	.st1{fill:#FFFFFF;stroke:#FFFFFF;stroke-width:0.44;stroke-miterlimit:10;}
	.st2{fill:#FFFFFF;}
</style>
<path class="st0" d="M172.3,501.7C27,291,0,269.4,0,192C0,86,86,0,192,0s192,86,192,192c0,77.4-27,99-172.3,309.7
	C202.2,515.4,181.8,515.4,172.3,501.7L172.3,501.7z"/>
<path class="st1" d="M191.7,328.2h-0.8c-37-16.1-67.1-44.9-84.9-81.1c-15.3-31.8-18.1-72-17.1-100.2c0.4-18.1,2.2-36.2,5.1-54.1
	v-1.1l1-0.5c51.1-27,141.2-27,192.9,0l1,0.5v1.1c3.1,17.9,4.8,36,5.1,54.1c0.7,28.2-1.7,68.4-17.1,99.9
	c-17.8,36.2-47.8,65-84.9,81.1L191.7,328.2z M98.4,94.7c-2.9,17.3-4.5,34.7-4.9,52.3c-0.7,27.7,1.7,67,16.6,97.6
	c17.1,34.9,45.9,62.8,81.5,78.6c35.4-15.9,64.1-43.6,81.1-78.4c14.9-30.6,17.2-70,16.6-97.7c-0.3-17.6-1.8-35.1-4.5-52.4
	C234.6,69.1,148.2,69.1,98.4,94.7z"/>
<path class="st2" d="M280.8,160v-1.5l0,0l0,0c-0.8-1.2-1.5-2.4-2.2-3.8c-1.6-2.9-3.4-5.7-5.3-8.4c-1.6-2.1-3.6-3.9-5.7-5.4
	c-1-0.6-2-1.1-3-1.6c-1-0.3-1.8-0.8-2.6-1.4c-0.3-0.6-0.5-1.2-0.6-1.9c0-0.5,0-1,0-1.5c-1-3.9-4-7.1-7.9-8.2c-1.8-0.6-3.6-1-5.5-1.3
	c-2.5-1.7-5.4-2.6-8.5-2.6l0,0c-6.6,0-12.9,2.7-17.6,7.4c-4-0.9-8.1-1.4-12.2-1.4l0,0c-20.7-0.2-41.3,1.7-61.7,5.6h-0.7l-2,0.3
	c-1.8,0.3-3.6,0.8-5.3,1.6l0,0c-3.3,1.5-5.8,4.4-6.8,8c-0.7,2.8-0.4,5.8,0.7,8.4h-2.2c-3.8,1.1-7.8,0.8-11.4-0.9
	c-0.7-0.5-1.6-1.6-1.4-4.6c0-1.5,0-3,0.5-4.5c0.6-3.8,0.6-7.7,0-11.5c-0.9-3.4-2.7-6.4-5.3-8.7c0.1-0.7,0.1-1.4,0-2
	c0-4-3.2-7.3-7.2-7.3c-2,0-3.9,0.7-5.3,2.2c-3.5-1.5-3.7-1.6-7.2-2.8l-1-0.4c-1.3-0.5,0.6,1.4,0,2.7c-0.6,1.3-3.1,1.6-1.8,2l1.1,0.4
	c2.3,0.7,4.6,1.6,6.8,2.6c0,0,0,0.5,0,0.7c0,4,3.3,7.2,7.3,7.2c1.4,0,2.8-0.4,3.9-1.1c1.7,1.5,2.9,3.5,3.4,5.7
	c0.6,3.2,0.6,6.5,0,9.7c0,1.6-0.4,3.2-0.5,4.9c-0.6,3.4,0.6,6.8,3.2,9c2.6,1.7,5.7,2.5,8.8,2.4c2.1,0,4.2-0.2,6.2-0.5l3.4-0.6
	c0.4,1.8,0.4,3.7,0.1,5.5c-1.6,1.4-2.7,3.3-3,5.4c-0.9,4.4,1.3,8.8,5.4,10.8l0,0c12.2,5.7,24.7,10.7,37.5,14.9l8.2,2.6
	c-2.5,3.8-6.2,6.7-10.5,8.1c-9.9,0-19.1,0-27.5-0.3l0,0c-7.8-0.5-15.6,2.2-21.4,7.5l0,0c-2.7,2.4-3.5,6.3-1.9,9.6l0,0l4.5,9.1
	c2.4,5.5,6.4,10,11.5,13.1c0.7,0.5,1.3,1.2,1.6,2l0,0l0,0c1.5,2.6,2.3,5.5,2.3,8.5l0,0l0,0c-0.3,7.3,3.1,14.3,9.1,18.5l0,0
	c1.4,0.9,3,1.4,4.6,1.4c0.8,0,1.6-0.1,2.4-0.4l0,0c9.7-2.7,18.1-8.9,23.5-17.4l0,0c2.4-4.6,5.5-8.6,9.4-12c4.5-2.4,8.7-4.3,12.8-6
	c2.8-1.1,5.7-2,8.7-2.6l0,0c12.3-2,24.2-6.2,35-12.5l0,0c19.7-11.2,27.7-35.4,18.7-56.2l0,0c-0.4-0.9-0.8-1.9-1.3-2.8
	c4.1-0.9,8.3-1,12.4-0.4h1.8l0,0l0,0l0,0l0,0l0,0l0,0l0,0l0,0l0,0v-0.5l0,0l0,0l0,0l0,0l0,0l0,0v-0.3L280.8,160z M104.2,120.3
	c-0.1-0.3-0.1-0.7,0-1l0,0c0.3-1.2,1.5-1.9,2.7-1.6c1.2,0.3,1.9,1.5,1.6,2.7c-0.3,1.2-1.5,1.9-2.7,1.6
	C105,121.8,104.4,121.2,104.2,120.3L104.2,120.3z M143.1,160.9c-0.2-1.8-0.6-3.6-1.1-5.4l4.7-0.9c1.6-0.3,2.6-1.8,2.3-3.4
	c0,0,0,0,0,0c-0.3-1.5-1.7-2.6-3.3-2.3c0,0-0.1,0-0.1,0l-5.6,1.1c-0.1-0.3-0.2-0.5-0.4-0.7l0,0v-0.4c-0.7-1.1-0.9-2.4-0.5-3.7
	c0.3-1.3,1.2-2.4,2.4-3c0.9-0.4,1.9-0.7,2.8-0.9h0.7l0,0c3-0.6,6.2-0.1,8.9,1.4c3.7,2.7,5.8,7,5.6,11.6l0,0l0,0
	c0.3,2.3,1,4.6,1.9,6.8C155.2,160.6,149.1,160.6,143.1,160.9L143.1,160.9z M243.4,138.8c-4.6-3.1-9.5-5.5-14.7-7.3
	c2.9-2,6.4-3,9.9-3l0,0c1.9,0,3.8,0.7,5.3,1.9h0.5l0,0l0,0l0,0h0.9c1.6,0.1,3.2,0.4,4.7,1c1.8,0.5,3.3,2,3.8,3.9v1.1
	c0.2,1.7,0.9,3.3,1.9,4.7c1.4,1.5,3.1,2.6,5,3.2c0.7,0.3,1.3,0.6,2,0.9c1.7,1.1,3.1,2.5,4.3,4.1c1.6,2.2,3,4.4,4.2,6.8
	c-3.5,0-7,0.6-10.4,1.6C256.3,150.3,250.4,143.8,243.4,138.8z"/>
<path class="st0" d="M243.4,215.2L243.4,215.2c-9.9,5.8-20.8,9.7-32.2,11.6l0,0c-3.6,0.6-7.1,1.6-10.5,3c-4.8,2-9.5,4.2-14.1,6.8
	l0,0c-0.7,0.4-1.5,0.6-2.3,0.5l0,0c-5.1-0.7-9.5-4-11.7-8.7c-2.1-4.6-1.8-10,0.7-14.4l0,0c0.5-0.8,1.2-1.3,2-1.6l0,0
	c7.3-2.3,13.4-7.3,17-14.1l13.5,3.4h1c2.4-0.1,4.2-2.2,4.1-4.6c-0.1-1.8-1.3-3.3-3-3.9c-5.1-1.2-10.8-2.6-16.6-4.2H191
	c-4.2-1.1-8.5-2.4-12.7-3.8c-12.4-4.2-24.6-9-36.5-14.5c-0.6-0.3-0.9-1.1-0.6-1.7c0.2-0.4,0.6-0.7,1.1-0.7l0,0
	c9.2-0.5,18.5,0.3,27.4,2.4h0.9c2,0,3.7-1.4,4.2-3.3c0.5-2.3-0.9-4.5-3.1-5c0,0-0.1,0-0.1,0c-0.6-0.2-1.2-0.3-1.8-0.4
	c-1.7-2.3-2.6-5.2-2.6-8c0.1-5.2-1.9-10.1-5.5-13.9c15.7-2.5,31.5-3.6,47.3-3.4l0,0c21.6,0.4,41.1,13.4,49.7,33.3l0,0
	C266,186.6,259.4,206.3,243.4,215.2z"/>
<path class="st2" d="M193.2,145.8c3.9,5,5.5,11.4,4.4,17.6c-0.8,5.7-3.7,10.9-8.2,14.4c-4.5,3.8,0,5.6,2.8,3.9
	c5.9-4.2,9.8-10.7,10.8-17.8c1.3-7.2-0.6-14.6-5.1-20.3C195.5,141.5,190.5,142.5,193.2,145.8z"/>
<path class="st2" d="M249.6,165.8L249.6,165.8c-0.2-0.4-0.6-0.7-1.1-0.8l0,0c-12.7-1.9-25.8,0.3-37.2,6.2l0,0l-0.3,0.3l0,0v0.7v0.7
	l0.3,0.6c1.9,2.8,2.5,6.3,1.5,9.5v0.9v0.5l0,0l0,0c7.8,7.2,17.9,11.2,28.5,11.4h1.2l0,0l0,0l0.5-0.5l0,0v-0.5v-1
	c0.1-1.6,0.4-3.2,1-4.7c0-0.8,0.7-1.6,1-2.4c0.7-1.3,1.2-2.8,1.6-4.3c0-0.6,0-1.3,0-1.9c0.1-1.1,0.4-2.2,0.7-3.3
	c0-0.5,0.4-1.1,0.6-1.8c0.5-1.1,0.9-2.2,1.1-3.4c0.4-1.9,0.5-3.9,0.4-5.9v-0.7L249.6,165.8z M246.2,169.3c0.1,0.8,0.1,1.6,0,2.4
	c-0.2,1-0.5,1.9-0.9,2.8c0,0.6-0.5,1.3-0.7,2c-0.4,1.3-0.6,2.6-0.7,3.9c0,0.6,0,1.2,0,1.8c-0.3,1.2-0.7,2.3-1.3,3.4
	c-0.4,0.9-0.8,1.8-1.1,2.8c-0.3,0.9-0.5,1.9-0.5,2.8v1.4h-1.4c-8.4-0.5-16.5-3.6-23.1-9l-0.6-0.5v-0.4c0.1-0.7,0.1-1.4,0-2.1v-1.3
	h1.3c2.2-0.2,4.5-0.2,6.8,0c0.6,0.1,1.2-0.4,1.3-1c0,0,0,0,0,0c0.1-0.3,0.1-0.5,0-0.8c-0.2-0.2-0.4-0.4-0.7-0.4
	c-2.7-0.3-5.3-0.3-8,0h-1.1l0-1.1l-0.4-1.2l-0.5-1.2l1.2-0.5c9.2-4.1,19.3-5.8,29.3-4.7h1.4L246.2,169.3z"/>
<path class="st2" d="M172.7,145.6c0,0,0,0,0.4,0.5c1.1,0.9,2.5,1.4,4,1.4c1.8,0.1,3.5-0.7,4.7-2.1c0.3-0.3,0.5-0.6,0.7-0.9l0,0
	c-0.2-0.4-0.5-0.8-0.9-1c-0.7-0.5-1.5-0.8-2.4-0.8c-1.2,0-2.5,0.2-3.6,0.7c-0.7,0.3-1.4,0.7-2,1.1
	C173.4,144.9,173,145.2,172.7,145.6z"/>
<path class="st0" d="M155.5,265c-3.6-2.5-5.6-6.7-5.4-11c0.3-4.3-0.7-8.6-2.6-12.5c-0.9-2.3-2.5-4.2-4.5-5.6l0,0l0,0l0,0
	c-3.7-2.2-6.6-5.5-8.3-9.5l0,0l-4.1-8.7c4.1-3.6,9.4-5.5,14.9-5.1l0,0c5.9,0,12.2,0.5,18.7,0.5l0,0c-0.5,1.4-1,2.8-1.3,4.2
	c-5.7-1-11.5-0.7-17.1,0.7c-1.3,0.4-2.1,1.7-1.8,3c0.3,1.3,1.7,2.2,3,1.8c0,0,0,0,0,0c4.9-1.5,10.1-1.8,15.2-1c0,2.7,0.4,5.5,1.4,8
	c-4.3,0.7-8.5,1.8-12.6,3.2c-1.3,0.4-2,1.9-1.6,3.2c0.4,1,1.3,1.7,2.4,1.7c0.3,0.1,0.6,0.1,0.9,0c4.3-1.6,8.7-2.6,13.2-3.2
	c1.3,2,2.8,3.8,4.7,5.3c-2.5,2.8-5.6,5.1-8.9,6.8c-1.2,0.6-1.8,2.1-1.2,3.3c0,0,0,0,0,0c0.4,0.8,1.3,1.3,2.2,1.4
	c0.4,0.1,0.8,0.1,1.1,0c4.1-2,7.8-4.9,10.8-8.4c1.2,0.7,2.5,1.2,3.9,1.6c-1.8,2.3-3.4,4.9-4.7,7.5l0,0
	C169.4,258.6,162.9,263.1,155.5,265z"/>
</svg>
