<svg id="Layer_1" data-name="Layer 1" xmlns="http://www.w3.org/2000/svg" viewBox="0 0 56.69 56.69">
    <defs>
        <style>
            .cls-1,.cls-4{fill:#aab3b7;}.cls-2,.cls-3{fill:#fff;}.cls-2{stroke:#fff;stroke-width:0.44px;}.cls-2,.cls-4{stroke-miterlimit:10;}.cls-4{stroke:#aab3b7;stroke-width:0.33px;}
        </style>
    </defs>
    <circle class="cls-1" cx="28.35" cy="28.35" r="28.35"/>
    <path class="cls-2"
          d="M28.35,48.55l-.12,0a25.19,25.19,0,0,1-12.56-12C13.4,31.85,13,25.9,13.14,21.73a57.12,57.12,0,0,1,.76-8l0-.16.15-.08c7.56-4,20.89-4,28.53,0l.15.07,0,.17a53.72,53.72,0,0,1,.76,8c.1,4.17-.25,10.12-2.53,14.78a25.19,25.19,0,0,1-12.55,12ZM14.56,14a54.68,54.68,0,0,0-.72,7.73c-.1,4.09.25,9.91,2.46,14.44A24.56,24.56,0,0,0,28.35,47.8a24.6,24.6,0,0,0,12-11.6c2.21-4.53,2.55-10.36,2.45-14.45A54.65,54.65,0,0,0,42.13,14C34.7,10.22,21.92,10.22,14.56,14Z"/>
    <path class="cls-3"
          d="M41.53,23.66v-.22l0,0v0c-.12-.18-.22-.36-.33-.56a11.2,11.2,0,0,0-.79-1.24,3.74,3.74,0,0,0-.85-.8,2.73,2.73,0,0,0-.45-.23,1,1,0,0,1-.38-.21.91.91,0,0,1-.09-.28,2.07,2.07,0,0,0,0-.22,1.73,1.73,0,0,0-1.17-1.22,4,4,0,0,0-.81-.19,2.23,2.23,0,0,0-1.25-.39h0a3.66,3.66,0,0,0-2.6,1.09,9.13,9.13,0,0,0-1.81-.21h0a45.44,45.44,0,0,0-9.12.83l-.11,0-.29.05a2.87,2.87,0,0,0-.79.24h0a1.82,1.82,0,0,0-1,1.18,1.91,1.91,0,0,0,.11,1.24l-.33,0a2.4,2.4,0,0,1-1.68-.13c-.1-.08-.24-.23-.21-.68,0-.22,0-.44.07-.67a5.09,5.09,0,0,0,0-1.7,2.52,2.52,0,0,0-.79-1.28,1,1,0,0,0,0-.3,1.08,1.08,0,0,0-1.07-1.08A1.07,1.07,0,0,0,15,17c-.52-.22-.55-.23-1.07-.41l-.15-.06c-.19-.07.09.21,0,.4s-.46.23-.27.3l.16.06a10,10,0,0,1,1,.38s0,.07,0,.1a1.08,1.08,0,0,0,1.08,1.07,1.06,1.06,0,0,0,.58-.17,1.72,1.72,0,0,1,.51.84,4.12,4.12,0,0,1,0,1.44c0,.23-.06.48-.07.72A1.41,1.41,0,0,0,17.25,23a2.18,2.18,0,0,0,1.3.35,6,6,0,0,0,.92-.08l.51-.09A2.22,2.22,0,0,1,20,24a1.4,1.4,0,0,0-.45.8,1.44,1.44,0,0,0,.8,1.59h0a51.72,51.72,0,0,0,5.54,2.21l1.22.38a3,3,0,0,1-1.55,1.2c-1.46,0-2.83,0-4.07-.05h0a4.24,4.24,0,0,0-3.16,1.11h0a1.21,1.21,0,0,0-.28,1.42h0L18.72,34a4.26,4.26,0,0,0,1.7,1.94.68.68,0,0,1,.24.3v0h0A2.49,2.49,0,0,1,21,37.49v0h0a3.16,3.16,0,0,0,1.35,2.73h0a1.19,1.19,0,0,0,.68.21,1.13,1.13,0,0,0,.36-.06h0a6.12,6.12,0,0,0,3.48-2.57h0a6.11,6.11,0,0,1,1.39-1.78c.66-.35,1.28-.64,1.89-.89a6.63,6.63,0,0,1,1.28-.38h0a15.19,15.19,0,0,0,5.17-1.85h0a6.55,6.55,0,0,0,2.76-8.31h0c-.06-.14-.12-.28-.19-.42A5.17,5.17,0,0,1,41,24.11h.27l0,0h0l0,0h0l0,0,0,0h0l0,0h0v-.08h0l0,0v0h0v0h0v-.05ZM15.41,17.8a.33.33,0,0,1,0-.15h0a.33.33,0,1,1,0,.16Zm5.75,6A5,5,0,0,0,21,23l.7-.14a.43.43,0,0,0,.34-.51.42.42,0,0,0-.5-.34l-.83.16a.41.41,0,0,0-.06-.11h0l0-.06a.66.66,0,0,1-.08-.54.7.7,0,0,1,.35-.44,1.69,1.69,0,0,1,.42-.13l.1,0h0a1.91,1.91,0,0,1,1.31.21,2,2,0,0,1,.83,1.71v0h0a4,4,0,0,0,.28,1A20.65,20.65,0,0,0,21.16,23.81ZM36,20.53a9.42,9.42,0,0,0-2.18-1.08A2.66,2.66,0,0,1,35.28,19h0a1.27,1.27,0,0,1,.79.28h.07l0,0h0l0,0h.14a2.39,2.39,0,0,1,.69.15.82.82,0,0,1,.56.57l0,.16a1.45,1.45,0,0,0,.28.7,1.82,1.82,0,0,0,.74.48,2,2,0,0,1,.29.14,2.61,2.61,0,0,1,.64.61,8.33,8.33,0,0,1,.62,1,5.74,5.74,0,0,0-1.54.23A9.28,9.28,0,0,0,36,20.53Z"/>
    <path class="cls-4"
          d="M36,31.83h0a14,14,0,0,1-4.76,1.71h0a7.13,7.13,0,0,0-1.55.45,20.2,20.2,0,0,0-2.08,1h0a.55.55,0,0,1-.34.07h0a2.27,2.27,0,0,1-1.73-1.28,2.35,2.35,0,0,1,.11-2.13h0a.54.54,0,0,1,.3-.24h0a4.32,4.32,0,0,0,2.51-2.08l2,.5.15,0a.64.64,0,0,0,.15-1.25c-.76-.18-1.59-.38-2.46-.62l-.05,0c-.62-.17-1.25-.35-1.88-.56a52,52,0,0,1-5.4-2.15.19.19,0,0,1,.07-.36h0a14.74,14.74,0,0,1,4.06.35h.14a.64.64,0,0,0,.62-.49.62.62,0,0,0-.48-.75,1.31,1.31,0,0,0-.27-.06,2.06,2.06,0,0,1-.39-1.19,2.91,2.91,0,0,0-.81-2.05,41,41,0,0,1,7-.5h0a8.18,8.18,0,0,1,7.35,4.92h0A5.26,5.26,0,0,1,36,31.83Z"/>
    <path class="cls-3"
          d="M28.57,21.57a3.31,3.31,0,0,1,.65,2.6A3.25,3.25,0,0,1,28,26.3c-.67.56,0,.83.41.58A3.83,3.83,0,0,0,30,24.24a3.79,3.79,0,0,0-.75-3C28.92,20.93,28.17,21.08,28.57,21.57Z"/>
    <path class="cls-3"
          d="M36.92,24.53l0,0a.23.23,0,0,0-.16-.12h0a9,9,0,0,0-5.5.92h0l-.05.05,0,0,0,.1v.11l.05.09a1.66,1.66,0,0,1,.22,1.41v.14l0,.08,0,0,0,0A6.4,6.4,0,0,0,35.7,29h.18l0,0,0,0,.07-.08v0l0-.07V28.7A2,2,0,0,1,36.1,28c0-.12.1-.23.15-.35a2.35,2.35,0,0,0,.23-.63,2.7,2.7,0,0,0,0-.28,3.26,3.26,0,0,1,.1-.49c0-.08.06-.17.09-.26a3.25,3.25,0,0,0,.17-.5,3.83,3.83,0,0,0,.06-.87v-.1Zm-.51.51a1.78,1.78,0,0,1,0,.35,2.3,2.3,0,0,1-.14.42c0,.09-.07.19-.11.29a3.27,3.27,0,0,0-.11.58c0,.09,0,.18,0,.26a2,2,0,0,1-.19.5,3.89,3.89,0,0,0-.17.41,1.36,1.36,0,0,0-.08.42l0,.2h-.2A5.94,5.94,0,0,1,32,27.14l-.09-.08V27a1.63,1.63,0,0,0,0-.31v-.19h.19a4.6,4.6,0,0,1,1,0,.17.17,0,0,0,.19-.15.18.18,0,0,0,0-.12.14.14,0,0,0-.11-.06,5.18,5.18,0,0,0-1.18,0h-.16L31.84,26l-.06-.18-.07-.18.18-.08a8.48,8.48,0,0,1,4.34-.7h.2Z"/>
    <path class="cls-3"
          d="M25.55,21.54s0,0,.06.08a.88.88,0,0,0,.59.2.85.85,0,0,0,.69-.31,1,1,0,0,0,.11-.14h0a.32.32,0,0,0-.13-.15.67.67,0,0,0-.35-.12,1.15,1.15,0,0,0-.53.11,1.17,1.17,0,0,0-.29.17A.72.72,0,0,0,25.55,21.54Z"/>
    <path class="cls-4"
          d="M23,39.2a1.9,1.9,0,0,1-.8-1.63,3.6,3.6,0,0,0-.39-1.85,1.9,1.9,0,0,0-.66-.83h0l0,0h0a3,3,0,0,1-1.23-1.4h0l-.61-1.29a3,3,0,0,1,2.2-.76h0c.87,0,1.8.07,2.77.07h0a4.44,4.44,0,0,0-.19.62,6,6,0,0,0-2.53.11.38.38,0,0,0-.26.45.37.37,0,0,0,.45.27A5.12,5.12,0,0,1,24,32.81,3.56,3.56,0,0,0,24.2,34a9.87,9.87,0,0,0-1.87.48.37.37,0,0,0,.13.72.27.27,0,0,0,.13,0,8.42,8.42,0,0,1,1.95-.47,3.47,3.47,0,0,0,.69.79,4.61,4.61,0,0,1-1.32,1,.37.37,0,0,0-.17.5.38.38,0,0,0,.33.2.33.33,0,0,0,.17,0,5.11,5.11,0,0,0,1.6-1.24,3.46,3.46,0,0,0,.57.24,6.47,6.47,0,0,0-.69,1.11h0A4.82,4.82,0,0,1,23,39.2Z"/>
</svg>