<?xml version="1.0" encoding="utf-8"?>
<!-- Generator: Adobe Illustrator 24.1.2, SVG Export Plug-In . SVG Version: 6.00 Build 0)  -->
<svg version="1.1" id="Layer_1" focusable="false" xmlns="http://www.w3.org/2000/svg" xmlns:xlink="http://www.w3.org/1999/xlink"
	 x="0px" y="0px" viewBox="0 0 384 512" style="enable-background:new 0 0 384 512;" xml:space="preserve">
<style type="text/css">
	.st0{fill:#8A954D;}
	.st1{fill:#FFFFFF;}
	.st2{fill:none;}
	.st3{fill:#FFFFFF;stroke:#FFFFFF;stroke-width:0.23;stroke-miterlimit:10;}
	.st4{fill:#FFFFFF;stroke:#FFFFFF;stroke-width:0.22;stroke-miterlimit:10;}
</style>
<path class="st0" d="M172.3,501.7C27,291,0,269.4,0,192C0,86,86,0,192,0s192,86,192,192c0,77.4-27,99-172.3,309.7
	C202.2,515.4,181.8,515.4,172.3,501.7L172.3,501.7z"/>
<path class="st1" d="M270.2,169.5l36.2,13.7c3.5,1.3,5.2,5.2,3.9,8.6l-20.9,55.3c-1.3,3.5-5.2,5.2-8.6,3.9l-36.2-13.7
	c-3.5-1.3-5.2-5.2-3.9-8.6l20.9-55.3C262.8,169.9,266.7,168.1,270.2,169.5z"/>
<path class="st0" d="M283.2,252.2c-0.9,0-1.8-0.2-2.6-0.5l-36.2-13.5c-1.8-0.7-3.3-2.1-4.1-3.9c-0.7-1.8-0.7-3.9,0-5.8l20.9-55.2
	c1.4-3.8,5.6-5.8,9.5-4.4c0,0,0.1,0,0.1,0.1l36.2,13.5c3.8,1.5,5.8,5.8,4.3,9.7l-20.9,55.2c-0.7,1.9-2.1,3.4-3.9,4.2
	C285.5,252,284.3,252.2,283.2,252.2z M267.9,169.8c-0.8,0-1.7,0.2-2.4,0.5c-1.5,0.7-2.6,1.9-3.2,3.4l-20.9,55.2
	c-0.6,1.5-0.6,3.1,0,4.6c0.6,1.5,1.8,2.6,3.3,3.1l36.2,13.5c1.5,0.6,3.1,0.6,4.5,0c1.5-0.7,2.6-1.9,3.2-3.4l20.9-55.2
	c1.2-3.1-0.4-6.5-3.4-7.7c0,0-0.1,0-0.1,0l-36.2-13.5C269.2,170,268.5,169.9,267.9,169.8z"/>
<line class="st2" x1="266.4" y1="183.8" x2="299.3" y2="196.2"/>
<rect x="281.1" y="172.5" transform="matrix(0.3531 -0.9356 0.9356 0.3531 5.1732 387.507)" class="st0" width="3.5" height="35.1"/>
<line class="st2" x1="263.4" y1="193.1" x2="296.2" y2="205.5"/>
<rect x="278" y="181.8" transform="matrix(0.3531 -0.9356 0.9356 0.3531 -5.522 390.7077)" class="st0" width="3.5" height="35.1"/>
<line class="st2" x1="259.8" y1="200.9" x2="292.6" y2="213.3"/>
<rect x="274.4" y="189.5" transform="matrix(0.3531 -0.9356 0.9356 0.3531 -15.0599 392.3329)" class="st0" width="3.5" height="35.1"/>
<line class="st2" x1="259.4" y1="210.8" x2="289.1" y2="221.9"/>
<rect x="272.7" y="198.8" transform="matrix(0.3489 -0.9371 0.9371 0.3489 -22.5303 396.9473)" class="st0" width="3.5" height="31.9"/>
<line class="st2" x1="253.3" y1="218.9" x2="286.1" y2="231.3"/>
<rect x="267.9" y="207.5" transform="matrix(0.3531 -0.9356 0.9356 0.3531 -36.1308 397.901)" class="st0" width="3.5" height="35.1"/>
<line class="st2" x1="250.2" y1="227.7" x2="283" y2="240.1"/>
<rect x="264.9" y="216.3" transform="matrix(0.3531 -0.9356 0.9356 0.3531 -46.3263 400.7169)" class="st0" width="3.5" height="35.1"/>
<path class="st1" d="M282.3,168.6l15.7,5.9c2.6,1,3.9,3.9,2.9,6.5l0,0.1c-1,2.6-3.9,3.9-6.5,2.9l-15.7-5.9c-2.6-1-3.9-3.9-2.9-6.5
	l0-0.1C276.8,169,279.7,167.7,282.3,168.6z"/>
<path class="st0" d="M296.2,185.4c-0.7,0-1.5-0.1-2.2-0.3l-15.6-6c-3.2-1.2-4.9-4.7-3.7-7.9c0,0,0-0.1,0-0.1
	c0.6-1.5,1.8-2.8,3.3-3.5c1.5-0.6,3.2-0.6,4.7,0l15.6,5.9c3.2,1.1,4.9,4.6,3.8,7.8c-0.9,2.5-3.3,4.2-6,4.2V185.4z M294.8,182.9
	c1.9,1,4.2,0.2,5.2-1.7c1-1.9,0.2-4.2-1.7-5.2c-0.3-0.1-0.5-0.2-0.8-0.3l-15.6-6c-0.9-0.4-2-0.4-2.9,0c-0.9,0.4-1.7,1.1-2,2.1
	c-0.4,1-0.4,2,0,3c0.5,0.9,1.2,1.6,2.2,2L294.8,182.9z"/>
<circle class="st3" cx="108.2" cy="276.2" r="13.8"/>
<path class="st3" d="M121,331.9c-1.3,0-2.3-1-2.3-2.3l0,0V61.6c0-1.3,1-2.3,2.3-2.3c1.3,0,2.3,1,2.3,2.3v267.8
	c0.1,1.3-0.9,2.4-2.2,2.4C121,331.9,121,331.9,121,331.9z"/>
<path class="st3" d="M121,139.3c-0.6,0-1.2-0.3-1.7-0.7c-21.7-20.1-23-53.9-2.9-75.6c0.9-1,1.9-2,2.9-2.9c0.9-0.9,2.3-0.9,3.2,0
	c0,0,0,0,0,0c0.9,0.9,0.9,2.4,0,3.3c-1.5,1.4-35.4,35.4,0,72c0.9,0.9,0.9,2.4,0,3.3C122.1,139,121.5,139.3,121,139.3z"/>
<path class="st3" d="M121,204.3c-0.6,0-1.2-0.2-1.6-0.7c-12.7-13.1-18.4-26.2-17.2-39.1c1.7-11.7,8-22.1,17.5-29.1
	c0.9-0.9,2.4-0.8,3.3,0.1c0.9,0.9,0.8,2.4-0.1,3.3c-0.1,0.1-0.3,0.3-0.5,0.3c-8.4,6.3-14,15.8-15.6,26.2
	c-1.1,11.5,4.3,23.4,15.9,35.4c0.9,0.9,0.9,2.3,0,3.2c0,0,0,0,0,0C122.1,204.3,121.5,204.4,121,204.3z"/>
<path class="st3" d="M121,269.3c-0.6,0-1.2-0.2-1.6-0.7c-12.7-13-18.4-26.1-17.2-39.1c1.6-11.8,7.9-22.4,17.5-29.5
	c1.1-0.6,2.5-0.2,3.1,1c0.5,0.9,0.3,2.1-0.5,2.8c-8.4,6.4-14,15.9-15.6,26.4c-1.1,11.5,4.3,23.4,15.9,35.4c0.9,0.8,0.9,2.3,0.1,3.2
	c-0.4,0.5-1.1,0.7-1.7,0.7V269.3z"/>
<path class="st0" d="M269.3,192.1c0,0-32.2-73.3-32.6-74.3c-3.1-6.8-10-14.7-33.9-14.6c8.2-4.7,12.8-13.7,12-23.1
	c0.8-12.4-8.6-23-21-23.8c-0.9-0.1-1.9-0.1-2.8,0c-12.4-0.8-23,8.5-23.8,20.9c-0.1,1-0.1,1.9,0,2.9c-0.8,9.5,4,18.5,12.3,23.2
	c-25.9,1.8-30.7,9.3-33.9,18.4l-23.6,52.5v35.8c7.2,2,14.7-1.1,18.4-7.6l16.6-36v146.3c-0.2,8.5,6.6,15.6,15.1,15.8
	c0.1,0,0.1,0,0.2,0c8.3-0.1,15-6.9,14.9-15.3c0-0.2,0-0.3,0-0.5v-98.1h9.3v98.1c-0.2,8.7,6.7,16,15.4,16.2
	c8.5-0.3,15.1-7.5,14.8-15.9c0-0.1,0-0.2,0-0.2V165.5l18.7,41.9c1.5,2.8,3.3,5.5,5.3,8l5.2-16.1c0,0,5.9,15.1,12.7,10.9
	C270.7,204.4,270.9,198.1,269.3,192.1z"/>
<path class="st4" d="M211.8,331.3c-10.1-0.2-18.1-8.5-17.9-18.5c0,0,0-0.1,0-0.1v-95.6h-4.7v95.6c0.4,9.6-7.1,17.8-16.7,18.2
	c-0.2,0-0.4,0-0.6,0c-9.8,0-17.8-8-17.7-17.9c0-0.1,0-0.2,0-0.3V177.8l-11.9,26.1c-4.3,7.4-13.1,11-21.3,8.6l-1.7-0.5v-38.3l23.8-53
	c3.3-8.8,7.9-16.5,29.4-19.2c-5.4-5.7-8.3-13.4-7.9-21.3c-0.6-13.7,10-25.3,23.7-26c0.9,0,1.7,0,2.6,0c13.7-0.8,25.4,9.7,26.2,23.4
	c0.1,1,0.1,1.9,0,2.9c0.4,7.5-2.2,14.9-7.1,20.5c20.3,1.5,26.3,9.6,29.2,15.8l0,0c1.6,3.4,12.6,28.4,32.6,74.5l0,0
	c2.1,6.7,1.8,13.8-0.6,20.3v0.6l-0.5,0.3c-1.8,1.1-4,1.4-6,0.7c-3.3-1.5-5.9-4-7.6-7.2l-4.7,14.4l-3.4-3.7c-2.3-2.7-4.3-5.6-6-8.7
	l-14-31.4v135.4c0.8,9.8-6.5,18.3-16.3,19.1C212.5,331.3,212.2,331.3,211.8,331.3z M184.3,212.2h14.6v100.5
	c0,7.2,5.7,13.2,12.9,13.5c7.1-0.3,12.6-6.3,12.3-13.4c0,0,0-0.1,0-0.1V154l23.4,52.4c0.7,1.3,1.5,2.6,2.4,3.8l5.9-18.2l2.5,6.4
	c1.4,3.3,4.5,8.9,7.4,10c0.4,0.1,0.9,0.1,1.3,0c1.4-5,1.4-10.2,0-15.2c-12.4-28.4-31.1-71.1-32.5-74l0,0
	c-2.8-6.2-9.1-13.5-31.6-13.5h-10.6l9.1-4.6c7.3-4.3,11.5-12.5,10.7-20.9c0.6-11.2-8-20.8-19.2-21.3c-0.7,0-1.4,0-2.1,0
	c-11.2-0.7-20.8,7.8-21.5,19c0,0.8-0.1,1.6,0,2.4c-0.8,8.5,3.4,16.7,10.8,21l8.1,4l-9,0.6c-24.4,1.7-28.7,8.3-31.8,16.7l-23.4,52.1
	v33.9c5.4,0.6,10.7-2.1,13.5-6.8l21.2-46.1v157.1c-0.4,7.1,5.1,13.2,12.2,13.5c0.2,0,0.4,0,0.6,0c6.9-0.1,12.5-5.7,12.4-12.6
	c0-0.3,0-0.6,0-0.9L184.3,212.2z"/>
<path class="st1" d="M218.8,65.5L218.8,65.5L218.8,65.5L218.8,65.5L218.8,65.5L218.8,65.5L218.8,65.5L218.8,65.5l0.4-12.1l0,0
	c0.1-6-2.8-11.6-7.6-15.2l0,0c-12.6-9-29.5-9-42.1,0l0,0c-4.3,3.4-6.8,8.5-7,14l0,0v12.5l0,0l0,0l0,0l0,0l0,0l0,0l0,0
	c2.4,2.9,5,5.5,7.9,8c2.5,1.6,7.7-3,20.3-3c6.1-0.2,12.2,0.8,17.9,2.9C211.6,74.5,215.5,70.4,218.8,65.5z"/>
<path class="st0" d="M219.8,66L219.8,66L219.8,66L219.8,66L219.8,66L219.8,66L219.8,66L219.8,66L219.8,66L219.8,66l0.4-12.5l0,0
	c0.6-6.6-2.2-12.9-7.4-16.9l0,0c-13-9.3-30.5-9.3-43.5,0l0,0c-5,3.7-7.9,9.5-7.9,15.7l0,0v12.9l0,0l0,0l0,0l0,0l0,0l0,0l0,0
	c2.5,3.4,5.4,6.5,8.5,9.3c2.5,1.7,7.9-3,21.1-3c6.4-0.2,12.9,0.8,18.9,3C212.2,74.9,216.7,71,219.8,66z M211.5,69.9L211.5,69.9
	c-0.6,0.6-1.5,0.8-2.4,0.6l0,0c-11.8-3.8-24.5-3.8-36.2,0l0,0c-0.8,0.2-1.7,0-2.4-0.6l0,0l-4.7-4.5c15.6-8.6,34.6-8.6,50.2,0
	L211.5,69.9z M170.9,39.8L170.9,39.8c11.8-8.6,27.8-8.6,39.7,0l0,0c4,2.9,6.4,7.6,6.3,12.5v10.2c-8-4.4-17-6.7-26.1-6.8l0,0
	c-9.1,0.1-18.1,2.4-26.1,6.8V52.4l0,0c-0.1-5,2.4-9.7,6.5-12.6H170.9z"/>
<path class="st0" d="M205.6,41.3c-0.3-0.2-0.6-0.2-0.9,0l0,0l-5.1,3.6l0,0c-2.1-1.8-4.5-3.1-7.2-3.8v-2.7l0,0c0.1-0.2,0.1-0.4,0-0.6
	c-0.2-0.1-0.5-0.1-0.7,0l0,0l-5.8,2.8h-0.7c-3.5,0.4-6.8,1.9-9.5,4.3c-0.3,0.2-0.4,0.5-0.4,0.9c0.1,0.4,0.3,0.7,0.7,0.9l0,0
	c3.4,3.2,7.9,5,12.6,4.9c1,0.1,1.9,0.1,2.9,0c0.1-0.1,0.3-0.1,0.5,0l2.4,1.5h0.7c0.2-0.1,0.4-0.3,0.4-0.6l0,0v-2.2
	c1.6-0.6,3-1.4,4.3-2.5l0,0l4.8,3.7l0,0c0,0,0,0,0.3,0c0.2,0.1,0.3,0.1,0.5,0c0.2-0.3,0.2-0.6,0-0.9c-1.8-2.5-1.8-5.8,0-8.3
	c0.3-0.1,0.5-0.5,0.4-0.8C205.8,41.5,205.7,41.4,205.6,41.3z M181.3,46.7c-0.8,0-1.4-0.6-1.4-1.4c0-0.8,0.6-1.4,1.4-1.4
	s1.4,0.6,1.4,1.4C182.7,46.1,182.1,46.7,181.3,46.7z"/>
<path class="st1" d="M179.5,100.8c0,0,7.8,4.7,23.4,0l-10.9,17L179.5,100.8z"/>
</svg>
