<svg id="Layer_1" data-name="Layer 1" xmlns="http://www.w3.org/2000/svg" viewBox="0 0 56.69 56.69">
    <defs>
        <style>
            .cls-1{fill:#8a954d;}.cls-2,.cls-3,.cls-4{fill:#fff;}.cls-3,.cls-4{stroke:#fff;stroke-miterlimit:10;}.cls-3{stroke-width:0.23px;}.cls-4{stroke-width:0.22px;}
        </style>
    </defs>
    <circle class="cls-1" cx="28.35" cy="28.35" r="28.35"/>
    <rect class="cls-2" x="36.83" y="25.69" width="7.7" height="10.71" rx="0.99"
          transform="translate(13.58 -12.37) rotate(20.68)"/>
    <path class="cls-1"
          d="M41.82,37.24a1,1,0,0,1-.39-.08l-5.35-2a1.12,1.12,0,0,1-.61-.58,1.14,1.14,0,0,1,0-.85l3.08-8.15a1.09,1.09,0,0,1,1.42-.64l5.35,2a1.12,1.12,0,0,1,.64,1.43l-3.08,8.15a1.07,1.07,0,0,1-.58.62A1.18,1.18,0,0,1,41.82,37.24ZM39.55,25.07a.9.9,0,0,0-.36.08.92.92,0,0,0-.47.5L35.64,33.8a.89.89,0,0,0,0,.68.85.85,0,0,0,.49.46l5.35,2a.86.86,0,0,0,.67,0,.92.92,0,0,0,.47-.5l3.08-8.15a.88.88,0,0,0-.52-1.14l-5.35-2A.81.81,0,0,0,39.55,25.07Z"/>
    <line class="cls-2" x1="39.34" y1="27.14" x2="44.19" y2="28.97"/>
    <rect class="cls-1" x="41.5" y="25.46" width="0.52" height="5.18" transform="translate(0.77 57.22) rotate(-69.32)"/>
    <line class="cls-2" x1="38.89" y1="28.51" x2="43.74" y2="30.34"/>
    <rect class="cls-1" x="41.05" y="26.84" width="0.52" height="5.18"
          transform="translate(-0.81 57.69) rotate(-69.32)"/>
    <line class="cls-2" x1="38.36" y1="29.66" x2="43.21" y2="31.49"/>
    <rect class="cls-1" x="40.52" y="27.98" width="0.52" height="5.18"
          transform="translate(-2.22 57.93) rotate(-69.32)"/>
    <line class="cls-2" x1="38.3" y1="31.12" x2="42.69" y2="32.77"/>
    <rect class="cls-1" x="40.23" y="29.6" width="0.52" height="4.69"
          transform="matrix(0.35, -0.94, 0.94, 0.35, -3.68, 58.58)"/>
    <line class="cls-2" x1="37.4" y1="32.32" x2="42.24" y2="34.15"/>
    <rect class="cls-1" x="39.56" y="30.65" width="0.52" height="5.18"
          transform="translate(-5.34 58.75) rotate(-69.32)"/>
    <line class="cls-2" x1="36.95" y1="33.62" x2="41.79" y2="35.45"/>
    <rect class="cls-1" x="39.11" y="31.94" width="0.52" height="5.18"
          transform="translate(-6.84 59.17) rotate(-69.32)"/>
    <rect class="cls-2" x="40.6" y="25.29" width="3.95" height="1.49" rx="0.74"
          transform="translate(11.94 -13.36) rotate(20.68)"/>
    <path class="cls-1"
          d="M43.73,27.38a.86.86,0,0,1-.32-.05l-2.31-.88a.91.91,0,0,1-.54-1.18.92.92,0,0,1,.48-.51.9.9,0,0,1,.7,0l2.31.87a.91.91,0,0,1-.32,1.77Zm-.2-.38a.57.57,0,1,0,.4-1.06l-2.31-.88a.58.58,0,0,0-.43,0,.54.54,0,0,0-.3.31.56.56,0,0,0,0,.44.62.62,0,0,0,.32.3Z"/>
    <circle class="cls-3" cx="15.98" cy="40.78" r="2.04"/>
    <path class="cls-3" d="M17.86,49a.34.34,0,0,1-.34-.34V9.1a.34.34,0,0,1,.68,0V48.64A.34.34,0,0,1,17.86,49Z"/>
    <path class="cls-3"
          d="M17.86,20.57a.36.36,0,0,1-.25-.11,7.9,7.9,0,0,1,0-11.59.33.33,0,0,1,.47,0,.34.34,0,0,1,0,.48c-.22.21-5.22,5.23,0,10.63a.34.34,0,0,1,0,.48A.3.3,0,0,1,17.86,20.57Z"/>
    <path class="cls-3"
          d="M17.86,30.17a.33.33,0,0,1-.24-.1c-1.87-1.93-2.72-3.87-2.54-5.77A6.51,6.51,0,0,1,17.66,20a.34.34,0,1,1,.39.55,5.93,5.93,0,0,0-2.3,3.87c-.16,1.7.63,3.45,2.35,5.23a.33.33,0,0,1,0,.47A.33.33,0,0,1,17.86,30.17Z"/>
    <path class="cls-3"
          d="M17.87,39.77a.31.31,0,0,1-.24-.1c-1.87-1.92-2.72-3.86-2.54-5.77a6.47,6.47,0,0,1,2.58-4.35.34.34,0,0,1,.39.55A6,6,0,0,0,15.76,34c-.16,1.7.63,3.46,2.35,5.23a.33.33,0,0,1-.24.57Z"/>
    <path class="cls-1"
          d="M39.76,28.37S35,17.54,34.94,17.4c-.46-1-1.47-2.17-5-2.16a3.56,3.56,0,0,0,1.77-3.41,3.31,3.31,0,0,0-3.51-3.51,3.31,3.31,0,0,0-3.52,3.51,3.56,3.56,0,0,0,1.81,3.42c-3.83.26-4.53,1.38-5,2.71L18,25.71V31a2.39,2.39,0,0,0,2.72-1.12l2.45-5.31V46.17a2.28,2.28,0,0,0,2.26,2.33,2.23,2.23,0,0,0,2.2-2.33V31.69H29V46.17a2.34,2.34,0,0,0,2.28,2.39,2.27,2.27,0,0,0,2.18-2.39V24.43l2.76,6.19A6.91,6.91,0,0,0,37,31.8l.77-2.38s.87,2.23,1.88,1.61A4.31,4.31,0,0,0,39.76,28.37Z"/>
    <path class="cls-4"
          d="M31.28,48.92a2.69,2.69,0,0,1-2.64-2.75V32.05h-.7V46.17a2.58,2.58,0,0,1-2.56,2.69,2.63,2.63,0,0,1-2.62-2.69V26.25L21,30.1a2.76,2.76,0,0,1-3.15,1.27l-.25-.08V25.63l3.52-7.82c.48-1.3,1.16-2.43,4.34-2.83a4.26,4.26,0,0,1-1.16-3.15A3.67,3.67,0,0,1,28.18,8a3.67,3.67,0,0,1,3.87,3.88A4.3,4.3,0,0,1,31,14.91c3,.22,3.88,1.42,4.31,2.34h0c.24.5,1.86,4.19,4.82,11h0a4.62,4.62,0,0,1-.09,3l0,.09-.08.05a1,1,0,0,1-.88.1,2.36,2.36,0,0,1-1.12-1.07l-.69,2.13L36.77,32a7.6,7.6,0,0,1-.88-1.28l-2.07-4.63v20A2.62,2.62,0,0,1,31.28,48.92ZM27.21,31.33h2.16V46.17a2,2,0,0,0,1.91,2,1.9,1.9,0,0,0,1.81-2V22.74l3.46,7.73a4.26,4.26,0,0,0,.35.56l.87-2.68.37.94c.2.49.66,1.32,1.09,1.47a.31.31,0,0,0,.19,0,4.29,4.29,0,0,0,0-2.25c-1.83-4.19-4.59-10.5-4.8-10.92l0,0c-.42-.91-1.34-2-4.66-2H28.4l1.35-.68a3.25,3.25,0,0,0,1.58-3.09,3,3,0,0,0-3.15-3.15A3,3,0,0,0,25,11.83a3.23,3.23,0,0,0,1.6,3.1l1.19.59-1.33.09c-3.6.25-4.24,1.22-4.7,2.47l-3.46,7.7v5a2.09,2.09,0,0,0,2-1l3.13-6.8V46.17a1.9,1.9,0,0,0,1.89,2,1.85,1.85,0,0,0,1.83-2Z"/>
    <path class="cls-2"
          d="M32.31,9.67h0v0h0v0h0v0h0l.06-1.78h0a2.75,2.75,0,0,0-1.12-2.24h0a5.34,5.34,0,0,0-6.22,0h0A2.75,2.75,0,0,0,24,7.72h0V9.56h0v0h0v0h0v0h0a10.79,10.79,0,0,0,1.16,1.18c.37.24,1.13-.44,3-.44a7.09,7.09,0,0,1,2.65.43C31.24,11,31.82,10.39,32.31,9.67Z"/>
    <path class="cls-1"
          d="M32.46,9.74h0v0h0v0h0v0h0v0h0l.06-1.84h0A2.82,2.82,0,0,0,31.42,5.4h0A5.5,5.5,0,0,0,25,5.4h0a2.84,2.84,0,0,0-1.16,2.32h0V9.62h0v0h0v0h0v0h0A10.12,10.12,0,0,0,25.09,11c.37.25,1.16-.45,3.12-.45A7.37,7.37,0,0,1,31,11C31.34,11.06,32,10.49,32.46,9.74Zm-1.23.58h0a.38.38,0,0,1-.35.09h0a8.73,8.73,0,0,0-5.35,0h0a.38.38,0,0,1-.35-.09h0l-.69-.67a7.68,7.68,0,0,1,7.41,0Zm-6-4.45h0a5,5,0,0,1,5.86,0h0a2.23,2.23,0,0,1,.93,1.85v1.5a8.16,8.16,0,0,0-3.86-1h0a8.26,8.26,0,0,0-3.85,1V7.73h0A2.23,2.23,0,0,1,25.27,5.87Z"/>
    <path class="cls-1"
          d="M30.36,6.1a.1.1,0,0,0-.13,0h0l-.76.53h0a2.65,2.65,0,0,0-1.06-.56v-.4h0a.11.11,0,0,0,0-.09.09.09,0,0,0-.1,0h0L27.46,6l-.1,0a2.61,2.61,0,0,0-1.4.63.16.16,0,0,0-.06.13A.24.24,0,0,0,26,6.9h0a2.72,2.72,0,0,0,1.86.73,3.11,3.11,0,0,0,.43,0,.08.08,0,0,1,.07,0l.35.22h.1a.1.1,0,0,0,.06-.09h0l0-.32a2.24,2.24,0,0,0,.64-.37h0l.71.55h0s0,0,.05,0a.09.09,0,0,0,.07,0,.11.11,0,0,0,0-.13,1.07,1.07,0,0,1,0-1.23A.09.09,0,0,0,30.36,6.1Zm-3.59.8a.21.21,0,0,1-.21-.21.21.21,0,0,1,.21-.21.21.21,0,0,1,.21.21A.22.22,0,0,1,26.77,6.9Z"/>
    <path class="cls-2" d="M26.51,14.88s1.15.69,3.45,0l-1.61,2.51Z"/>
</svg>