<?xml version="1.0" encoding="utf-8"?>
<!-- Generator: Adobe Illustrator 24.1.2, SVG Export Plug-In . SVG Version: 6.00 Build 0)  -->
<svg version="1.1" id="Layer_1" focusable="false" xmlns="http://www.w3.org/2000/svg" xmlns:xlink="http://www.w3.org/1999/xlink"
	 x="0px" y="0px" viewBox="0 0 384 512" style="enable-background:new 0 0 384 512;" xml:space="preserve">
<style type="text/css">
	.st0{fill:#5C8B8E;}
	.st1{fill:#FFFFFF;}
</style>
<path class="st0" d="M172.3,501.7C27,291,0,269.4,0,192C0,86,86,0,192,0s192,86,192,192c0,77.4-27,99-172.3,309.7
	C202.2,515.4,181.8,515.4,172.3,501.7L172.3,501.7z"/>
<path class="st1" d="M268.7,110.9h-20.9V88.2c0-2.9-2.3-5.2-5.2-5.2H239c-2.9,0-5.2,2.3-5.2,5.2v22.7h-83.6V88.2
	c0-2.9-2.3-5.2-5.2-5.2h-3.4c-2.9,0-5.2,2.3-5.2,5.2v22.7h-20.9c-11.6,0-20.9,9.4-20.9,20.9v153.3c0,11.6,9.4,20.9,20.9,20.9h153.3
	c11.6,0,20.9-9.4,20.9-20.9V131.8C289.7,120.2,280.3,110.9,268.7,110.9z M115.4,124.8h153.3c3.9,0,7,3.2,7,7v20.9H108.5v-20.9
	C108.5,128,111.6,124.8,115.4,124.8z M268.7,292.1H115.4c-3.9,0-7-3.2-7-7V166.6h167.2v118.5C275.7,289,272.6,292.1,268.7,292.1z"/>
</svg>
