<?xml version="1.0" encoding="utf-8"?>
<!-- Generator: Adobe Illustrator 24.0.2, SVG Export Plug-In . SVG Version: 6.00 Build 0)  -->
<svg version="1.1" id="Layer_1" focusable="false" xmlns="http://www.w3.org/2000/svg" xmlns:xlink="http://www.w3.org/1999/xlink"
	 x="0px" y="0px" viewBox="0 0 384 512" style="enable-background:new 0 0 384 512;" xml:space="preserve">
<style type="text/css">
	.st0{fill:#57B2C6;}
	.st1{fill:#FFFFFF;}
</style>
<path class="st0" d="M172.3,501.7C27,291,0,269.4,0,192C0,86,86,0,192,0s192,86,192,192c0,77.4-27,99-172.3,309.7
	C202.2,515.4,181.8,515.4,172.3,501.7L172.3,501.7z"/>
<path class="st1" d="M219.6,107.7c-42.8,0-80.2,25.8-101,47.9l-41.5-31.1c-1.6-1.2-3.3-1.7-5.1-1.7c-4.6,0-8.9,3.8-7.9,8.6
	l11.5,51.7l-11.5,51.7c-1.1,4.8,3.2,8.6,7.9,8.6c1.7,0,3.5-0.5,5.1-1.7l41.5-31.1c20.8,22.1,58.2,47.9,101,47.9
	c65.4,0,118.4-60.3,118.4-75.3C338,168,285,107.7,219.6,107.7z M219.6,244.7c-36.8,0-71.2-22.5-91-43.6l-8.4-8.9l-9.8,7.3
	l-29.3,21.9l7.9-35.4l0.7-3l-0.7-3l-7.9-35.4l29.3,21.9l9.8,7.3l8.4-8.9c19.8-21.1,54.2-43.6,91-43.6c53.8,0,99.5,47.7,104.5,61.6
	C319.1,197.1,273.4,244.7,219.6,244.7z M255.8,172.8c-5.7,0-10.3,4.6-10.3,10.3c0,5.7,4.6,10.3,10.3,10.3c5.7,0,10.3-4.6,10.3-10.3
	C266.1,177.4,261.5,172.8,255.8,172.8z"/>
</svg>
