<?xml version="1.0" encoding="utf-8"?>
<!-- Generator: Adobe Illustrator 24.1.2, SVG Export Plug-In . SVG Version: 6.00 Build 0)  -->
<svg version="1.1" id="Layer_1" focusable="false" xmlns="http://www.w3.org/2000/svg" xmlns:xlink="http://www.w3.org/1999/xlink"
	 x="0px" y="0px" viewBox="0 0 384 512" style="enable-background:new 0 0 384 512;" xml:space="preserve">
<style type="text/css">
	.st0{fill:#B6AC7A;}
	.st1{fill:#FFFFFF;}
</style>
<path class="st0" d="M172.3,501.7C27,291,0,269.4,0,192C0,86,86,0,192,0s192,86,192,192c0,77.4-27,99-172.3,309.7
	C202.2,515.4,181.8,515.4,172.3,501.7L172.3,501.7z"/>
<path class="st1" d="M299.8,179.2c-3.9-7.1-9.6-13-16.5-17.3l0,0l0,0l0,0l0,0H279l0,0l0,0l0,0l0,0l0,0l0,0l0,0l0,0l0,0l0,0l0,0l0,0
	l0,0l0,0l0,0l0,0l0,0l0,0v6.3h-19.2v-6.9c7.6-1.5,12.5-8.9,11-16.5c-1.3-6.6-7.2-11.4-13.9-11.3c-5.8,0-11,3.5-13.1,8.9h-38.3l0,0
	c-11.8,0.1-21.4,9.6-21.6,21.4l-18.8-7.3l0,0c-4.4-1.7-8.9-2.8-13.6-3.3l19.6-19l0,0c5.2-5.1,8.3-12,8.6-19.3l0,0l0.5-13.6l0,0
	c0.1-2.5,2-4.5,4.4-4.9l0,0l32.5-4.8l0,0c1.7,0,3.1-1.4,3.1-3.1c0-1.7-1.4-3.1-3.1-3.1l0,0l-85.7-6.1l0,0c-1.6,0-2.9,1.3-3,2.9
	c0,1.5,1,2.9,2.5,3.3l0,0l33,9.7l0,0c2.3,0.7,3.8,2.8,3.7,5.2l0,0l-0.6,13.6l0,0c-0.2,4-1.8,7.8-4.7,10.6l0,0l-31.3,30.5
	c-25.9,8.7-39.8,36.7-31.1,62.6c2.7,7.9,7.3,15.1,13.5,20.7c2.1,1.9,5.3,1.7,7.2-0.4c0,0,0-0.1,0.1-0.1c1.6-2,1.5-4.9-0.3-6.8
	c-15.9-14.6-17.1-39.3-2.5-55.2c11-12,28.2-16,43.3-10l0,0l19.2,7.7l0,0c1.1,0.5,2.1,0.8,3.3,1.1v55.1c-1.1,0.3-2.2,0.6-3.3,1l0,0
	l-19.2,7.7c-5.2,2.1-10.9,3.1-16.5,2.8c-2.8-0.2-5.2,2-5.4,4.8c0,0,0,0.1,0,0.1c-0.2,2.8,1.9,5.2,4.7,5.4c0.1,0,0.1,0,0.2,0h2.5
	c6.3,0,12.6-1.2,18.4-3.5l0,0l18.8-7.5c0.1,11.9,9.8,21.4,21.7,21.5h38.4c2.8,7.2,11,10.7,18.2,7.9s10.7-11,7.9-18.2
	c-1.7-4.4-5.5-7.6-10.1-8.6v-9.3h15.7v6.1l0,0l0,0l0,0l0,0l0,0l0,0l0.5,0.7l0,0c0.2,0.3,0.4,0.5,0.7,0.6l0,0h0.4l0,0l0,0l0,0h0.4
	l0,0l0,0h2.2h0.5l0,0l0,0l0,0h0.4l0,0c13.9-8.7,22.4-24,22.4-40.4C303.8,193.6,302.7,186.1,299.8,179.2z M256.9,141.8
	c3.2,0,5.7,2.6,5.7,5.7c0,3.2-2.6,5.7-5.7,5.7c-3.2,0-5.7-2.6-5.7-5.7C251.2,144.4,253.7,141.8,256.9,141.8z M205.4,152.6h38.4
	c1.7,4.3,5.4,7.4,9.9,8.4v9.5h-15.5c-0.6-5.3-5.2-9.4-10.5-9.5h-14.2c-2.1,0-4.2,0.2-6.2,0.7l0,0l-12.9,3.1H194V164
	C194,157.7,199.1,152.7,205.4,152.6z M215.2,233.1v-61.7h12.4c0.2,0,0.4,0.2,0.4,0.4l0,0v61.2c-0.1,0.1-0.3,0.1-0.4,0L215.2,233.1z
	 M196.8,229.7L196.8,229.7c-0.9-0.2-1.8-0.4-2.8-0.5v-53.8l2.8-0.5l0,0l9.9-2.4V232L196.8,229.7z M238.2,181h3.9v42.8h-3.9V181z
	 M248.2,181h5.5v42.8h-5.5V181z M256.8,263.2c-3.4,0-6.1-2.7-6.1-6.1s2.7-6.1,6.1-6.1c3.4,0,6.1,2.7,6.1,6.1
	C262.9,260.5,260.2,263.2,256.8,263.2L256.8,263.2z M253.7,243.5c-4.5,0.9-8.2,4-9.9,8.3h-38.3l0,0c-6.3,0-11.4-5.1-11.4-11.4l0,0
	v-0.9h0.5l0,0l12.9,3l0,0c2,0.5,4.1,0.7,6.2,0.7h14.1c5.3,0,9.7-3.9,10.5-9.1h15.5L253.7,243.5z M259.7,181h5.7v42.8h-5.6L259.7,181
	z M271.4,223.8V181h4v42.8H271.4z M285.8,227.3V177c13,14.2,13,36,0,50.2V227.3z"/>
<path class="st1" d="M153.2,215.5c-2.6,1.2-3.7,4.3-2.5,6.9c0.9,1.9,2.7,3,4.8,3c0.8,0,1.5-0.2,2.2-0.5c12.5-6,17.7-21,11.7-33.5
	c-6-12.5-21-17.7-33.5-11.7c-11.4,5.5-16.9,18.7-12.8,30.7c0.8,2.7,3.7,4.2,6.4,3.3c0.1,0,0.3-0.1,0.4-0.1c2.7-0.8,4.2-3.6,3.4-6.3
	c-0.1-0.2-0.1-0.4-0.2-0.5c-2.6-7.7,1.5-16.1,9.2-18.7s16.1,1.5,18.7,9.2c2.4,7.1-0.8,14.8-7.5,18.1L153.2,215.5z"/>
<path class="st1" d="M145.6,267.2c-3.4-2-7-3.4-10.8-4.2c-2-0.5-4-1-6-1.2l23.9-57.1l0,0c1.4-3.3-0.2-7-3.4-8.4
	c-3.3-1.4-7,0.2-8.4,3.4l0,0l0,0l-25.7,61.2c-4.4,0.3-8.8,1.2-13,2.5c-4.3,1.2-8.2,3.3-11.5,6.3c-2.7,2.4-4.3,5.7-4.4,9.2
	c0.1,5,2.8,9.6,7.2,12c6.7,4.3,14.4,6.6,22.3,6.8h4c8.7,0.2,17.2-1.8,25-5.6c2.1-1,4.1-2.5,5.7-4.2c2.1-2.3,3.2-5.2,3.1-8.3
	C153.1,274.4,150.1,269.8,145.6,267.2z M142.7,280.8c-0.8,0.8-1.8,1.4-2.8,2c-7.3,3.5-15.5,5.1-23.6,4.4c-6,0-12-1.7-17.1-4.8
	c-1.8-1.2-2.7-2.4-2.7-3.1c0.2-0.7,0.6-1.3,1.2-1.8c2.2-1.8,4.7-3.2,7.5-3.9c4.7-1.4,9.5-2.1,14.4-2.1c4.2,0,8.5,0.5,12.6,1.6
	c2.8,0.6,5.4,1.6,7.9,3c1.4,0.7,2.5,1.9,3.1,3.3l0,0c0.1,0.5,0.1,0.9-0.1,1.4L142.7,280.8z"/>
</svg>
