<svg id="Layer_1" data-name="Layer 1" xmlns="http://www.w3.org/2000/svg" viewBox="0 0 56.69 56.69">
    <defs>
        <style>.cls-1{fill:#b6ab7a;}.cls-2{fill:#fff;}</style>
    </defs>
    <circle class="cls-1" cx="28.35" cy="28.35" r="28.35"/>
    <path class="cls-2"
          d="M44.06,26.33a6.94,6.94,0,0,0-2.42-2.54h0l0,0h0l0,0H41l0,0h0l0,0,0,0,0,0,0,0,0,0,0,0,0,0,0,0,0,0,0,0,0,0h0v0l0,0v0l0,0v.92H38.17V23.69a2.06,2.06,0,0,0-.43-4.08,2.05,2.05,0,0,0-1.92,1.31l-5.64,0h0A3.2,3.2,0,0,0,27,24.07L24.24,23h0a7.59,7.59,0,0,0-2-.48l2.88-2.79h0a4.17,4.17,0,0,0,1.26-2.84h0l.07-2h0a.76.76,0,0,1,.65-.72h0l4.78-.71h0a.45.45,0,0,0,0-.9h0l-12.61-.89h0a.45.45,0,0,0-.44.42.48.48,0,0,0,.37.48h0L24.06,14h0a.76.76,0,0,1,.55.76h0l-.09,2h0a2.31,2.31,0,0,1-.69,1.56h0l-4.61,4.49a7.27,7.27,0,0,0-2.58,12.26A.75.75,0,0,0,17.71,35,.76.76,0,0,0,17.66,34a5.75,5.75,0,0,1,6-9.59h0l2.83,1.13h0a3,3,0,0,0,.48.16v8.11a4.42,4.42,0,0,0-.48.15h0l-2.83,1.13a5.74,5.74,0,0,1-2.43.41.75.75,0,0,0-.79.72.74.74,0,0,0,.71.79h.37a7.22,7.22,0,0,0,2.71-.52h0L27,35.38a3.2,3.2,0,0,0,3.19,3.16h5.65a2.06,2.06,0,1,0,2.35-2.77V34.4h2.31v.89l0,0v0l0,0h0v0l0,0,.08.1h0a.28.28,0,0,0,.1.09h0l.06,0h0l0,0h0l.06,0h0l0,0h.32l.07,0h0l0,0h0l.06,0h0a7,7,0,0,0,3.3-5.94A6.94,6.94,0,0,0,44.06,26.33Zm-6.32-5.5a.84.84,0,1,1-.84.84A.85.85,0,0,1,37.74,20.83Zm-7.57,1.59,5.65,0a2.08,2.08,0,0,0,1.46,1.24v1.39H35a1.58,1.58,0,0,0-1.55-1.39H31.36a4,4,0,0,0-.91.1h0l-1.89.45h-.07V24.1A1.69,1.69,0,0,1,30.17,22.42Zm1.44,11.84V25.19h1.83a.06.06,0,0,1,.06.06v9a.06.06,0,0,1-.06,0Zm-2.71-.51h0a2.7,2.7,0,0,0-.41-.07V25.77l.41-.07h0l1.46-.35v8.74ZM35,26.59h.57v6.3H35Zm1.46,0h.81v6.3h-.81Zm1.27,12.1a.9.9,0,1,1,.9-.9A.9.9,0,0,1,37.74,38.69Zm-.46-2.91A2,2,0,0,0,35.82,37l-5.64,0h0a1.68,1.68,0,0,1-1.68-1.68v-.13l.07,0h0l1.89.44h0a4,4,0,0,0,.91.11h2.08A1.58,1.58,0,0,0,35,34.4h2.28Zm.89-9.19H39v6.3h-.83Zm1.72,6.3v-6.3h.59v6.3Zm2.11.52V26a5.48,5.48,0,0,1,0,7.38Z"/>
    <path class="cls-2"
          d="M22.49,31.67a.76.76,0,0,0,.33,1.45.8.8,0,0,0,.33-.08,3.69,3.69,0,1,0-5.1-2.13.75.75,0,0,0,1,.47.74.74,0,0,0,.47-1,2.17,2.17,0,1,1,3,1.25Z"/>
    <path class="cls-2"
          d="M21.37,39.28a5.42,5.42,0,0,0-1.59-.62,6.54,6.54,0,0,0-.88-.18l3.51-8.4h0a.94.94,0,0,0-1.74-.73h0l-3.78,9a8.28,8.28,0,0,0-1.91.37,4.18,4.18,0,0,0-1.69.92A1.94,1.94,0,0,0,12.64,41a2.07,2.07,0,0,0,1.06,1.77,6.33,6.33,0,0,0,3.28,1h.59a7.82,7.82,0,0,0,3.67-.83,2.91,2.91,0,0,0,.84-.62,1.78,1.78,0,0,0,.46-1.22A2.29,2.29,0,0,0,21.37,39.28Zm-.42,2a1.91,1.91,0,0,1-.41.29,6.65,6.65,0,0,1-3.47.64,4.86,4.86,0,0,1-2.52-.71c-.26-.17-.39-.36-.39-.45a.51.51,0,0,1,.18-.26,2.74,2.74,0,0,1,1.1-.57,7.11,7.11,0,0,1,2.12-.31,7.27,7.27,0,0,1,1.85.23,3.91,3.91,0,0,1,1.16.44.94.94,0,0,1,.45.49v0A.28.28,0,0,1,21,41.27Z"/>
</svg>