<?xml version="1.0" encoding="utf-8"?>
<!-- Generator: Adobe Illustrator 24.1.2, SVG Export Plug-In . SVG Version: 6.00 Build 0)  -->
<svg version="1.1" id="Layer_1" focusable="false" xmlns="http://www.w3.org/2000/svg" xmlns:xlink="http://www.w3.org/1999/xlink"
	 x="0px" y="0px" viewBox="0 0 384 512" style="enable-background:new 0 0 384 512;" xml:space="preserve">
<style type="text/css">
	.st0{fill:#5C8B8E;}
	.st1{clip-path:url(#SVGID_2_);}
	.st2{fill:#FFFFFF;}
	.st3{fill:#FFFFFF;stroke:#FFFFFF;stroke-width:0.33;stroke-miterlimit:10;}
</style>
<path class="st0" d="M172.3,501.7C27,291,0,269.4,0,192C0,86,86,0,192,0s192,86,192,192c0,77.4-27,99-172.3,309.7
	C202.2,515.4,181.8,515.4,172.3,501.7L172.3,501.7z"/>
<g>
	<defs>
		<circle id="SVGID_1_" cx="191.9" cy="192.1" r="145.1"/>
	</defs>
	<clipPath id="SVGID_2_">
		<use xlink:href="#SVGID_1_"  style="overflow:visible;"/>
	</clipPath>
	<g class="st1">
		<path class="st2" d="M145.9,153.4c-0.9,6.3-0.7,12.6,0.3,18.8l0,0l0,0l0,0l0,0c0.7,3.3,3,6,6.2,7.2l0,0l0,0l0,0
			c11.7,2.9,23.7,4.3,35.8,4.1h1.4c4.9,0,9.9,0,14.6-0.5h2.6c6.2-0.3,12.3-1.2,18.3-2.4c1.2-0.3,2.4-0.6,3.5-1.2l0,0
			c3.4-1.4,5.8-4.6,6.3-8.3l0,0l0,0v-0.6c0.2-6-0.2-12-1.4-17.8c-2.6-11-8.4-21-16.8-28.5c-4.5-4-9.8-7-15.5-8.7
			c0.5-3.1,0.5-6.3,0-9.5c-0.7-5.1-3.1-9.9-6.8-13.6c-3.4-3.7-8-6.1-13-6.8l-4.9-31.5c-0.5-2.7-3.1-4.5-5.8-4
			c-2.7,0.5-4.5,3.1-4,5.8l0,0l5.3,31.4c-5.2,2.4-9.2,6.9-10.9,12.4c-1.8,6.4-1.3,13.3,1.4,19.4c0.5,1,1,2,1.4,2.8
			C154.2,129.8,147.8,141,145.9,153.4z M206.4,173.7h-2.5c-4.9,0-10,0.5-14.8,0.5c-11.1,0.2-22.1-1-32.9-3.7l0,0
			c-1-5.2-1.2-10.5-0.5-15.7v-1.2h2.1c3.6,0,7.1,0,10.6-0.5l0,0c5.8-0.4,11.7-1.2,17.3-2c11.2-1.8,22.3-4.7,33-8.5
			c2.4,4.1,4.2,8.5,5.4,13.1c1,5,1.4,10.1,1.1,15.2l-0.5,0.3l-1.6,0.5C217.6,173,212,173.6,206.4,173.7L206.4,173.7z M214.2,135.8
			c-9.6,3.3-19.4,5.7-29.4,7.3c-5.5,0.9-11.1,1.6-16.6,2l0,0c-3.4,0-6.8,0.5-9.8,0.5c2.6-6.6,6.8-12.4,12.3-16.8h1h0.5
			c1.2,0.1,2.3,0.1,3.5,0c2,0,4-0.2,6-0.4c3.1-0.4,6.3-1.1,9.3-2c1.6-0.5,3.1-1.2,4.6-2l0,0l0,0l0,0l0.8-0.5c5,1.4,9.6,3.8,13.6,7.2
			C211.5,132.5,212.9,134.1,214.2,135.8L214.2,135.8z M170.4,103c1.2-3.4,4-6,7.6-6.8c3.6-0.5,7.2,0.8,9.7,3.5
			c4.1,4.8,5.2,11.4,2.9,17.2c-0.9,0.5-1.8,0.8-2.7,1.1c-2.3,0.8-4.8,1.4-7.2,1.6c-2.3,0.2-4.5,0.2-6.8,0c-1.1-1.3-1.9-2.8-2.6-4.3
			C169.6,111.4,169.3,107.1,170.4,103z"/>
		<path class="st3" d="M232.9,214.6c-22.6-0.1-45-3.4-66.7-9.7c-40.9-10.5-83.9-9.9-124.5,1.8c-1.6,0.7-3.4-0.1-4.1-1.6
			s0.1-3.4,1.6-4.1c0.2-0.1,0.3-0.1,0.5-0.2c41.8-12,86-12.7,128.1-1.9c56.4,16.1,99.1,8.9,125,0c15.6-4.8,30.2-12.5,43-22.7
			c1.2-1.2,3.2-1.2,4.4,0c1.2,1.2,1.2,3.2,0,4.4C339.6,181,302.1,214.6,232.9,214.6z"/>
		<path class="st3" d="M112.5,244.7c-25.5,0.6-50.7-5.9-72.7-18.8c-1.4-0.9-1.9-2.7-1.1-4.2c0,0,0-0.1,0.1-0.1
			c0.9-1.5,2.8-1.9,4.3-1c39,23.8,93.6,23.8,157.6,0c57.8-21.4,113,3.9,131.2,12.3c1.9,0.9,3.8,1.8,4.4,2c1.7,0.4,2.8,2,2.4,3.7
			c-0.3,1.4-1.5,2.4-3,2.5c-2.4-0.4-4.7-1.2-6.8-2.4c-17.4-8.3-70.7-32.6-125.8-12.1C174.2,237.9,143.6,244.1,112.5,244.7z"/>
		<path class="st3" d="M246.4,272.1c-19.7-0.4-39.2-4.3-57.5-11.6c-19.5-7.5-40.1-11.9-61-12.9c-45.7-1.6-67.5,16.7-67.7,17.1
			c-1.3,1.1-3.3,0.9-4.4-0.4c-1.2-1.2-1.2-3.1,0-4.3c0,0,0,0,0,0c0.9-0.9,23.8-20.3,71.7-18.6c21.6,1,42.9,5.4,63.1,13.2
			c32.6,11.1,61,20.7,134.7-5c1.6-0.5,3.4,0.3,4,1.9c0.5,1.6-0.3,3.4-2,4C301.5,265.4,274.1,271.1,246.4,272.1z"/>
		<path class="st3" d="M311.5,299.3c-0.7,0-1.5-0.3-2-0.7l0,0c-0.5-0.4-48.2-40.7-134.8-11.8c-35,11.9-73.3,9.4-106.6-6.8
			c-1.5-0.8-2.1-2.6-1.3-4.1c0,0,0-0.1,0-0.1c0.8-1.5,2.7-2,4.2-1.2c31.8,15,68.2,17.3,101.6,6.2c89.9-29.7,138.8,11.3,140.7,13.1
			c1.2,1.2,1.2,3.1,0,4.3c0,0,0,0,0,0C312.9,298.8,312.2,299.2,311.5,299.3z"/>
		<path class="st3" d="M285.7,324.6c-12.9,0-25.6-4.7-42.5-11c-12.8-4.7-28.7-10.6-49.3-16.1c-31.8-9.5-66.3-2.9-92.3,17.8l-0.9,0.7
			c-1.4,1-3.3,0.8-4.3-0.5c-1-1.4-0.8-3.3,0.5-4.4l0.8-0.6c27.5-22.1,64.1-29.3,97.8-19.1c20.9,5.6,37,11.5,49.9,16.3
			c25.9,9.6,40.2,14.8,61,6.1c1.6-0.7,3.4,0.1,4.1,1.7c0.6,1.6-0.1,3.4-1.7,4.1C301.4,322.7,293.6,324.5,285.7,324.6z"/>
		<path class="st3" d="M133.6,171.8c-34.5,0-72.7-11.7-89-22.3c-1.4-0.9-1.8-2.9-0.9-4.3c0,0,0,0,0,0c0.9-1.4,2.8-1.8,4.2-0.9
			c0,0,0,0,0.1,0c18.1,11.9,67.8,25.5,103.8,20c1.7,0,0,1.4,0,3.1c0,1.7,2.6,2.8,0.9,3C146.4,171.4,140,171.8,133.6,171.8z"/>
		<path class="st3" d="M339.4,171.7c-0.9,0-1.7-0.3-2.3-0.9l0,0c0,0-24.4-23-71-22.6c-11.3,0-22.6,2.1-33.1,6.2
			c-1.9,0.7-3.7,1.4-5.4,2s0-1.8,0-3.5c0-1.6-3.3-2-1.7-2.5c1.6-0.5,3.3-1.1,5.1-1.8c11.3-4.4,23.3-6.7,35.4-6.8
			c49.9-0.9,74.5,23.5,75.4,24.5c1.2,1.2,1.2,3.2,0,4.4C341.1,171.5,340.3,171.8,339.4,171.7z"/>
	</g>
</g>
</svg>
