<svg id="Layer_1" data-name="Layer 1" xmlns="http://www.w3.org/2000/svg" xmlns:xlink="http://www.w3.org/1999/xlink"
     viewBox="0 0 56.69 56.69">
    <defs>
        <style>
            .cls-1{fill:none;}.cls-2{fill:#5c8b8e;}.cls-3{clip-path:url(#clip-path);}.cls-4,.cls-5{fill:#fff;}.cls-5{stroke:#fff;stroke-miterlimit:10;stroke-width:0.33px;}
        </style>
        <clipPath id="clip-path">
            <circle class="cls-1" cx="28.35" cy="28.35" r="21.41"/>
        </clipPath>
    </defs>
    <circle class="cls-2" cx="28.35" cy="28.35" r="28.35"/>
    <g class="cls-3">
        <path class="cls-4"
              d="M21.56,22.64a9,9,0,0,0,.05,2.78v0h0v0h0a1.49,1.49,0,0,0,.91,1.07h0l0,0h0a20,20,0,0,0,5.28.6H28c.73,0,1.46,0,2.16-.07l.38,0a17.68,17.68,0,0,0,2.7-.36,2.35,2.35,0,0,0,.51-.17h0a1.52,1.52,0,0,0,.93-1.22v0h0v-.09a11.31,11.31,0,0,0-.2-2.63A8.17,8.17,0,0,0,32,18.34a6.28,6.28,0,0,0-2.29-1.29,4.4,4.4,0,0,0,0-1.4,3.51,3.51,0,0,0-1-2,3.25,3.25,0,0,0-1.92-1L26.06,8a.73.73,0,1,0-1.44.26l.78,4.63a3,3,0,0,0-1.61,1.83A4.19,4.19,0,0,0,24,17.58q.11.23.21.42A7.39,7.39,0,0,0,21.56,22.64Zm8.92,3-.37,0c-.72,0-1.47.08-2.19.08a18.45,18.45,0,0,1-4.85-.54s0,0,0,0A7.32,7.32,0,0,1,23,22.86l0-.17h.31c.53,0,1.05,0,1.56-.07h0c.86-.06,1.72-.17,2.56-.3a28.07,28.07,0,0,0,4.87-1.25A7.49,7.49,0,0,1,33.09,23a9.19,9.19,0,0,1,.16,2.25l-.07.05-.23.08A15.75,15.75,0,0,1,30.48,25.65Zm1.16-5.6a26.74,26.74,0,0,1-4.34,1.08c-.81.13-1.64.23-2.45.29h0c-.5,0-1,.07-1.45.07A5.93,5.93,0,0,1,25.22,19l.15,0h.08a4.36,4.36,0,0,0,.51,0,8.13,8.13,0,0,0,.89-.06,8,8,0,0,0,1.37-.3,4.05,4.05,0,0,0,.68-.29h0l0,0h0l.12-.08a5.08,5.08,0,0,1,2,1.07A5.76,5.76,0,0,1,31.64,20.05ZM25.18,15.2a1.53,1.53,0,0,1,1.12-1,1.63,1.63,0,0,1,1.43.51,2.5,2.5,0,0,1,.43,2.54,1.82,1.82,0,0,1-.4.16,5,5,0,0,1-1.07.24,4.79,4.79,0,0,1-1,0,2.58,2.58,0,0,1-.38-.64A2.73,2.73,0,0,1,25.18,15.2Z"/>
        <path class="cls-5"
              d="M34.4,31.67a36.18,36.18,0,0,1-9.85-1.43,34.91,34.91,0,0,0-18.37.26.46.46,0,1,1-.29-.87,36,36,0,0,1,18.91-.28c8.33,2.37,14.63,1.32,18.45,0A19.49,19.49,0,0,0,49.6,26a.47.47,0,0,1,.65,0,.46.46,0,0,1,0,.65C50.15,26.71,44.61,31.67,34.4,31.67Z"/>
        <path class="cls-5"
              d="M16.63,36.12A20.29,20.29,0,0,1,5.9,33.35a.45.45,0,0,1-.15-.63.46.46,0,0,1,.63-.15c5.76,3.51,13.81,3.51,23.26,0,8.53-3.16,16.68.58,19.36,1.81.28.13.56.26.65.29a.46.46,0,0,1-.08.91,2.79,2.79,0,0,1-1-.36C46,34,38.14,30.41,30,33.44A38.69,38.69,0,0,1,16.63,36.12Zm33-1.44Zm0,0Z"/>
        <path class="cls-5"
              d="M36.39,40.16a24.27,24.27,0,0,1-8.49-1.71,29,29,0,0,0-9-1.91C12.16,36.3,8.94,39,8.91,39.06A.47.47,0,0,1,8.26,39a.45.45,0,0,1,0-.64c.14-.13,3.51-3,10.58-2.74a29.72,29.72,0,0,1,9.32,1.95c4.81,1.64,9,3.05,19.88-.74a.47.47,0,0,1,.59.28.47.47,0,0,1-.29.59A36.82,36.82,0,0,1,36.39,40.16Z"/>
        <path class="cls-5"
              d="M46,44.18a.48.48,0,0,1-.3-.11h0c-.07-.06-7.12-6-19.9-1.74a20.71,20.71,0,0,1-15.73-1,.45.45,0,0,1-.18-.62.46.46,0,0,1,.62-.18,20.2,20.2,0,0,0,15,.91C38.78,37.05,46,43.11,46.27,43.38a.45.45,0,0,1,0,.64A.43.43,0,0,1,46,44.18Z"/>
        <path class="cls-5"
              d="M42.19,47.91c-1.91,0-3.78-.69-6.28-1.62-1.89-.69-4.24-1.56-7.28-2.38A15,15,0,0,0,15,46.53l-.14.11a.46.46,0,0,1-.64-.08.47.47,0,0,1,.08-.65l.12-.09A15.78,15.78,0,0,1,28.86,43c3.09.82,5.46,1.7,7.36,2.4,3.82,1.41,5.93,2.19,9,.9a.46.46,0,0,1,.6.25.47.47,0,0,1-.25.6A8.6,8.6,0,0,1,42.19,47.91Z"/>
        <path class="cls-5"
              d="M19.74,25.36c-5.09,0-10.73-1.72-13.13-3.29a.46.46,0,0,1-.13-.64.45.45,0,0,1,.63-.13c2.67,1.75,10,3.77,15.32,2.95.25,0,0,.21,0,.46s.39.41.14.45A20.06,20.06,0,0,1,19.74,25.36Z"/>
        <path class="cls-5"
              d="M50.11,25.35a.49.49,0,0,1-.34-.14h0s-3.6-3.4-10.48-3.33a13.31,13.31,0,0,0-4.89.92c-.28.11-.54.21-.79.29s0-.27,0-.51-.49-.29-.25-.37.49-.16.75-.26a14.83,14.83,0,0,1,5.23-1c7.37-.14,11,3.47,11.13,3.62a.46.46,0,0,1,0,.65A.47.47,0,0,1,50.11,25.35Z"/>
    </g>
</svg>



